<svg width="1920" height="1080" viewBox="0 0 1920 1080" fill="none" xmlns="http://www.w3.org/2000/svg">
<g clip-path="url(#clip0_36_67)">
<rect width="1920" height="1080" fill="white"/>
<rect width="1920" height="100" fill="#6D6D6D"/>
<rect x="-3" y="100" width="1671" height="980" fill="#9A9A9A"/>
<circle cx="66" cy="50" r="30" fill="#7D7D7D"/>
<circle cx="1861" cy="55" r="30" fill="#7D7D7D"/>
<rect x="143" y="25" width="702" height="51" rx="10" fill="#7D7D7D"/>
<rect x="1683" y="25" width="50" height="50" rx="10" fill="#7D7D7D"/>
<rect x="1618" y="25" width="50" height="50" rx="10" fill="#7D7D7D"/>
<rect x="1553" y="26" width="50" height="50" rx="10" fill="#7D7D7D"/>
<rect x="1668" y="100" width="250" height="980" fill="#363636"/>
<rect x="1684" y="162" width="217" height="40" rx="10" fill="#575757"/>
<rect x="1684" y="217" width="217" height="40" rx="10" fill="#575757"/>
<rect x="1684" y="272" width="217" height="40" rx="10" fill="#575757"/>
<rect x="1684" y="327" width="217" height="40" rx="10" fill="#575757"/>
<rect x="1684" y="382" width="217" height="40" rx="10" fill="#575757"/>
<rect x="1684" y="437" width="217" height="40" rx="10" fill="#575757"/>
<rect x="1684" y="492" width="217" height="40" rx="10" fill="#575757"/>
<rect x="1684" y="547" width="217" height="40" rx="10" fill="#575757"/>
<rect x="1684" y="602" width="217" height="40" rx="10" fill="#575757"/>
<rect x="49" y="138" width="1567" height="234" rx="10" fill="#A1A1A1"/>
<rect x="218" y="422" width="274" height="235" rx="10" fill="#A1A1A1"/>
<rect x="854" y="422" width="274" height="235" rx="10" fill="#A1A1A1"/>
<rect x="1172" y="422" width="274" height="235" rx="10" fill="#A1A1A1"/>
<rect x="536" y="422" width="274" height="235" rx="10" fill="#A1A1A1"/>
<rect x="218" y="692" width="274" height="234" rx="10" fill="#A1A1A1"/>
<rect x="854" y="692" width="274" height="234" rx="10" fill="#A1A1A1"/>
<rect x="1172" y="692" width="274" height="234" rx="10" fill="#A1A1A1"/>
<rect x="536" y="692" width="274" height="234" rx="10" fill="#A1A1A1"/>
<rect y="980" width="1920" height="100" fill="#B6B6B6"/>
</g>
<defs>
<clipPath id="clip0_36_67">
<rect width="1920" height="1080" fill="white"/>
</clipPath>
</defs>
</svg>
